<?xml version="1.0" encoding="utf-8"?>
<svg version="1.1" id="Layer_1" xmlns="http://www.w3.org/2000/svg" xmlns:xlink="http://www.w3.org/1999/xlink" x="0px" y="0px"
	 viewBox="0 0 65 160" style="enable-background:new 0 0 65 160;" xml:space="preserve">
<style type="text/css">
	.st0{fill:#1b6427;}
	.st1{fill:#1b6427;}
</style>
<g>
	<path d="M0,49c0-11,0-21.5,0-31.9c12.1-1.1,42.3,8.1,64.8,22.8c0,2.7,0,5.5,0,9.1c-9.7-8-20.2-12.5-32.4-12.6
		C20.3,36.4,9.9,41.8,0,49z"/>
	<path d="M45,137.8c0-23.4-0.2-46.2,0.1-69c0-3.1,0.7-6.4,3-7.9c1.7-1.1,3.9-1.4,7.1-1.5c0,27.2,0,54,0,81.3
		C51.6,139.6,48.6,138.8,45,137.8z"/>
	<path d="M37.5,59.4c0,25.1,0,49.7,0,75c-3.9-1.4-7.1-2.4-10.4-3.6c0-21.2-0.1-42.2,0.1-63.2C27.3,61.2,31.9,59,37.5,59.4z"/>
	<path d="M18.4,128c-3.2-1.5-6.2-2.9-9.4-4.4c0-18.9-0.2-37.5,0.1-56.1c0.1-4.9,2.4-8.1,9.2-8.1C18.3,81.8,18.4,104.8,18.4,128z"/>
	<path class="st0" d="M64.8,148.7c0,3.8,0,7.1,0,11.2c-24.4-6.4-45.9-17.4-64.7-33.8C20.4,137.2,41.5,145.8,64.8,148.7z"/>
	<path class="st1" d="M65,34.2C44.7,21.5,23.6,13.3,0,10.2c0-1.7,0-3.5,0-5.3C0,3.3,0,1.6,0,0C12.8-0.7,62,24.4,65,34.2z"/>
	<path d="M3.9,55.8c9.6-4.4,19.2-8.8,28.8-13.3C42.5,47,52.3,51.5,62,56c0,0,0,0,0,0H4C3.9,55.9,3.9,55.9,3.9,55.8z"/>
</g>
</svg>
